<?xml version="1.0" encoding="UTF-8" standalone="no"?>
<svg
   viewBox="0 0 512 512"
   version="1.1"
   id="svg2"
   sodipodi:docname="Logo.svg"
   inkscape:export-filename="icon.png"
   inkscape:export-xdpi="96"
   inkscape:export-ydpi="96"
   inkscape:version="1.4.2 (f4327f4, 2025-05-13)"
   xml:space="preserve"
   xmlns:inkscape="http://www.inkscape.org/namespaces/inkscape"
   xmlns:sodipodi="http://sodipodi.sourceforge.net/DTD/sodipodi-0.dtd"
   xmlns="http://www.w3.org/2000/svg"
   xmlns:svg="http://www.w3.org/2000/svg"><defs
     id="defs2"><inkscape:path-effect
       effect="fillet_chamfer"
       id="path-effect2"
       is_visible="true"
       lpeversion="1"
       nodesatellites_param="F,0,0,1,0,0,0,1 @ F,0,0,1,0,18.296374,0,1 @ F,0,0,1,0,23.809778,0,1 @ F,0,0,1,0,23.80978,0,1 @ F,0,0,1,0,28.272164,0,1 @ F,0,0,1,0,28.82315,0,1 @ F,0,0,1,0,6.3255245,0,1 @ F,0,0,1,0,6.4605528,0,1 @ F,0,0,1,0,18.327925,0,1"
       radius="0"
       unit="px"
       method="auto"
       mode="F"
       chamfer_steps="1"
       flexible="false"
       use_knot_distance="true"
       apply_no_radius="true"
       apply_with_radius="true"
       only_selected="false"
       hide_knots="false" /></defs><sodipodi:namedview
     id="namedview2"
     pagecolor="#505050"
     bordercolor="#eeeeee"
     borderopacity="1"
     inkscape:showpageshadow="0"
     inkscape:pageopacity="0"
     inkscape:pagecheckerboard="0"
     inkscape:deskcolor="#505050"
     inkscape:zoom="0.42822266"
     inkscape:cx="182.14823"
     inkscape:cy="547.6123"
     inkscape:window-width="1920"
     inkscape:window-height="1057"
     inkscape:window-x="-8"
     inkscape:window-y="-8"
     inkscape:window-maximized="1"
     inkscape:current-layer="svg2"
     showguides="true"><sodipodi:guide
       position="-162.23625,296.20101"
       orientation="1,0"
       id="guide2"
       inkscape:locked="false" /><sodipodi:guide
       position="-348.22214,392.07727"
       orientation="1,0"
       id="guide3"
       inkscape:locked="false" /></sodipodi:namedview><!-- Background: Indigo Rounded Square --><!-- Symbol: Stylized 'S' for Splitify (Split Coin) --><rect
     style="fill:#5182ef;fill-opacity:1;stroke-width:5;stroke-linecap:round"
     id="rect1"
     width="513.7514"
     height="512"
     x="-0.8757019"
     y="0"
     rx="120" /><path
     d="m 388.89209,96.278408 a 27.159127,27.159127 0 0 0 -3.54672,0.20369 H 118.352 A 39.413556,39.413556 0 0 0 78.940414,135.89692 V 376.30765 A 39.413559,39.413559 0 0 0 118.352,415.72248 h 267.9051 a 46.800374,46.800374 0 0 0 46.80249,-46.79924 V 212.874 A 47.71245,47.71245 0 0 0 385.34537,165.1598 H 134.65334 a 10.470968,10.470968 0 0 1 -10.47203,-10.46881 10.611502,10.611502 0 0 1 10.69513,-10.53024 h 250.4172 A 27.379083,27.379083 0 0 0 415.63312,120.10319 27.159127,27.159127 0 0 0 388.89209,96.278408 Z M 367.51801,265.10165 a 21.415963,21.415963 0 0 1 21.41611,21.41612 21.415963,21.415963 0 0 1 -21.41611,21.41611 21.415963,21.415963 0 0 1 -21.41611,-21.41611 21.415963,21.415963 0 0 1 21.41611,-21.41612 z"
     style="fill:#fefefe;fill-opacity:1;stroke-width:8.27676;stroke-linecap:round"
     id="path4" /></svg>
